# AST/ASF file generated using VICON BodyLanguage
# -----------------------------------------------
:version 1.10
:name VICON
:units
  mass 1.0
  length 0.45
  angle deg
:documentation
   .ast/.asf automatically generated from VICON data using
   VICON BodyBuilder and BodyLanguage model FoxedUp or BRILLIANT.MOD
:root
   order TX TY TZ RX RY RZ
   axis XYZ
   position 0 0 0  
   orientation 0 0 0 
:bonedata
  begin
     id 1 
     name lhipjoint
     direction 0.537252 -0.787203 0.302774 
     length 2.29576 
     axis 0 0 0  XYZ
  end
  begin
     id 2 
     name lfemur
     direction 0.34202 -0.939693 0  
     length 7.31114  
     axis 0 0 20  XYZ
    dof rx ry rz
    limits (-160.0 20.0)
           (-70.0 70.0)
           (-60.0 70.0)
  end
  begin
     id 3 
     name ltibia
     direction 0.34202 -0.939693 0   
     length 8.36008   
     axis 0 0 20   XYZ
    dof rx
    limits (-10.0 170.0)
  end
  begin
     id 4 
     name lfoot
     direction 0.0969116 -0.266263 0.959016   
     length 2.16704   
     axis -90 7.62852e-016 20   XYZ
    dof rx rz
    limits (-45.0 90.0)
           (-70.0 20.0)
  end
  begin
     id 5 
     name ltoes
     direction 1.53563e-011 -4.21779e-011 1   
     length 1.08338   
     axis -90 7.62852e-016 20   XYZ
    dof rx
    limits (-90.0 20.0)
  end
  begin
     id 6 
     name rhipjoint
     direction -0.588228 -0.754791 0.290308   
     length 2.39434  
     axis 0 0 0  XYZ 
  end
  begin
     id 7 
     name rfemur
     direction -0.34202 -0.939693 0   
     length 7.45207   
     axis 0 0 -20   XYZ
    dof rx ry rz
    limits (-160.0 20.0)
           (-70.0 70.0)
           (-70.0 60.0)
  end
  begin
     id 8 
     name rtibia
     direction -0.34202 -0.939693 0   
     length 8.03565   
     axis 0 0 -20   XYZ
    dof rx
    limits (-10.0 170.0)
 end
 begin
     id 9 
     name rfoot
     direction -0.107009 -0.294004 0.949795   
     length 2.11509  
     axis -90 -7.62852e-016 -20   XYZ
    dof rx rz
    limits (-45.0 90.0)
           (-20.0 70.0)
  end
  begin
     id 10 
     name rtoes
     direction -1.53533e-011 -4.22004e-011 1   
     length 1.05493   
     axis -90 -7.62852e-016 -20   XYZ
    dof rx
    limits (-90.0 20.0)
  end
  begin
     id 11 
     name lowerback
     direction -0.0115208 0.997969 -0.0626515   
     length 2.03153   
     axis 0 0 0   XYZ
    dof rx ry rz
    limits (-20.0 45.0)
           (-30.0 30.0)
           (-30.0 30.0)
  end
  begin
     id 12 
     name upperback
     direction -0.00423475 0.999974 -0.00583614   
     length 2.03619   
     axis 0 0 0   XYZ
    dof rx ry rz
    limits (-20.0 45.0)
           (-30.0 30.0)
           (-30.0 30.0)
  end
  begin
     id 13 
     name thorax
     direction 0.00289429 0.999728 0.0231573   
     length 2.03921   
     axis 0 0 0   XYZ
    dof rx ry rz
    limits (-20.0 45.0)
           (-30.0 30.0)
           (-30.0 30.0)
  end
  begin
     id 14 
     name lowerneck
     direction 0.0188995 0.987777 0.154721   
     length 1.78836   
     axis 0 0 0   XYZ
    dof rx ry rz
    limits (-20.0 45.0)
           (-30.0 30.0)
           (-30.0 30.0)
  end
  begin
     id 15 
     name upperneck
     direction -0.00612612 0.992995 -0.118   
     length 1.81789   
     axis 0 0 0   XYZ
    dof rx ry rz
    limits (-20.0 45.0)
           (-30.0 30.0)
           (-30.0 30.0)
  end
  begin
     id 16
     name head
     direction -0.00420226 0.998397 -0.0564482  
     length 1.82234  
     axis 0 0 0   XYZ
    dof rx ry rz
    limits (-20.0 45.0)
           (-30.0 30.0)
           (-30.0 30.0)
  end
  begin
     id 17 
     name lclavicle
     direction 0.916488 0.396539 0.0529676  
     length 3.51732  
     axis 0 0 0   XYZ
    dof ry rz
    limits (-20.0 10.0)
           (0.0 20.0)
  end
  begin
     id 18 
     name lhumerus
     direction 1 -4.4896e-011 8.36962e-028   
     length 5.45077   
     axis 180 -30 -90   XYZ
    dof rx ry rz
    limits (-60.0 90.0)
           (-90.0 90.0)
           (-90.0 90.0)
  end
  begin
     id 19
     name lradius
     direction 1 -4.48962e-011 3.01407e-027   
     length 3.05488   
     axis 180 -30 -90   XYZ
    dof rx
    limits (-10.0 170.0)
  end
  begin
     id 20
     name lwrist
     direction 1 -4.49002e-011 4.72961e-027   
     length 1.52744   
     axis -2.72261e-015 90 90   XYZ
    dof ry
    limits (-180.0 0.0)
 end
  begin
     id 21 
     name lhand
     direction 1 -4.4899e-011 9.45681e-027   
     length 0.638818   
     axis -6.0311e-015 90 90   XYZ
    dof rx rz
    limits (-90.0 90.0)
           (-45.0 45.0)
  end
  begin
     id 22 
     name lfingers
     direction 1 -4.48871e-011 1.88632e-026   
     length 0.515032   
     axis -1.20625e-014 90 90   XYZ
    dof rx
    limits (0.0 90.0)
  end
  begin
     id 23
     name lthumb
     direction 0.707107 -6.34964e-011 0.707107   
     length 0.739485   
     axis -90 45 6.32835e-014   XYZ
    dof rx rz
    limits (-45.0 45.0)
           (-45.0 45.0)
  end
  begin
     id 24 
     name rclavicle
     direction -0.949427 0.303202 0.0815894   
     length 3.76167  
     axis 0 0 0   XYZ 
    dof ry rz
    limits (-10.0 20.0)
           (-20.0 0.0)
  end
  begin
     id 25 
     name rhumerus
     direction -1 -4.48971e-011 -6.43969e-018  
     length 4.88702   
     axis 180 30 90   XYZ
    dof rx ry rz
    limits (-90.0 60.0)
           (-90.0 90.0)
           (-90.0 90.0)
  end
  begin
     id 26 
     name rradius
     direction -1 -4.48987e-011 5.46662e-027   
     length 3.22603   
     axis 180 30 90   XYZ
    dof rx
    limits (-10.0 170.0)
  end
  begin
     id 27 
     name rwrist
     direction -1 -4.48956e-011 4.72476e-027   
     length 1.61302   
     axis -2.72261e-015 -90 -90   XYZ
    dof ry
    limits (-180.0 0.0)
  end
  begin
     id 28
     name rhand
     direction -1 -4.4889e-011 9.43571e-027   
     length 0.716293   
     axis -6.0311e-015 -90 -90   XYZ
    dof rx rz
    limits (-90.0 90.0)
           (-45.0 45.0)
  end
  begin
     id 29
     name rfingers
     direction -1 -4.48887e-011 1.88701e-026   
     length 0.577494   
     axis -1.20625e-014 -90 -90   XYZ
    dof rx
    limits (0.0 90.0)
  end
  begin
     id 30
     name rthumb
     direction -0.707107 -6.34825e-011 0.707107   
     length 0.829169   
     axis -90 -45 -6.32835e-014   XYZ
    dof rx rz
    limits (-45.0 45.0)
           (-45.0 45.0)
  end
:hierarchy
  begin
    root lhipjoint rhipjoint lowerback
    lhipjoint lfemur
    lfemur ltibia
    ltibia lfoot
    lfoot ltoes
    rhipjoint rfemur
    rfemur rtibia
    rtibia rfoot
    rfoot rtoes
    lowerback upperback
    upperback thorax
    thorax lowerneck lclavicle rclavicle
    lowerneck upperneck
    upperneck head
    lclavicle lhumerus
    lhumerus lradius
    lradius lwrist
    lwrist lhand lthumb
    lhand lfingers
    rclavicle rhumerus
    rhumerus rradius
    rradius rwrist
    rwrist rhand rthumb
    rhand rfingers
  end

#!OML:ASF F:\VICON\USERDATA\INSTALL\rory3\rory3.ASF
:FULLY-SPECIFIED
:DEGREES
324
root -0.548375 11.8944 0.30345 248.492 104.979 222.518
lowerback 32.3445 -1.86653 10.3588
upperback 8.13495 2.29302 4.73514
thorax -7.40008 1.30986 -1.30781
lowerneck -15.8392 -15.2094 -7.01693
upperneck 2.52027 -20.0791 12.5549
head 5.24913 -9.37042 2.85549
rclavicle -2.54444e-014 -4.6118e-014
rhumerus 83.3311 -47.7196 -125.972
rradius 28.8808
rwrist -180.298
rhand -26.2577 -2.48995
rfingers 7.12502
rthumb 0.296872 -32.4695
lclavicle -2.54444e-014 -4.6118e-014
lhumerus -39.9794 -6.50438 74.6763
lradius 70.1591
lwrist 28.8074
lhand -20.9685 31.0454
lfingers 7.12502
lthumb 5.40477 60.9565
rfemur -111.286 -28.0628 23.8614
rtibia 117.199
rfoot -17.3999 26.4253
rtoes -24.4047
lfemur -113.455 37.2963 -54.4595
ltibia 118.891
lfoot -9.26066 -28.0437
ltoes -9.12444
325
root -0.548879 11.9693 0.307421 248.441 104.953 222.102
lowerback 31.6916 -1.63513 10.0085
upperback 8.04462 2.36148 4.74851
thorax -7.26157 1.33836 -1.13842
lowerneck -15.7392 -15.2284 -7.1356
upperneck 2.63732 -20.1108 12.6686
head 5.29871 -9.37865 2.89999
rclavicle 1.90833e-014 1.09729e-013
rhumerus 82.0602 -48.1136 -124.704
rradius 29.1017
rwrist -180.24
rhand -26.3401 -2.39583
rfingers 7.12502
rthumb 0.21725 -32.3755
lclavicle 1.90833e-014 1.09729e-013
lhumerus -40.0528 -6.7904 74.9421
lradius 70.1155
lwrist 28.5561
lhand -20.9426 30.8523
lfingers 7.12502
lthumb 5.42973 60.7627
rfemur -110.87 -27.5705 23.7879
rtibia 116.499
rfoot -17.4948 26.1255
rtoes -23.8583
lfemur -113.024 36.823 -54.2084
ltibia 118.21
lfoot -9.5967 -27.7505
ltoes -9.27077
326
root -0.525187 11.945 0.309505 248.503 104.863 221.952
lowerback 30.8759 -1.46852 9.76559
upperback 8.37769 2.35056 4.79634
thorax -7.2492 1.347 -1.08186
lowerneck -15.7445 -15.2519 -7.1499
upperneck 2.83981 -20.1583 12.6539
head 5.36721 -9.39314 2.88294
rclavicle -6.36111e-015 4.77083e-015
rhumerus 81.2076 -48.4776 -123.971
rradius 29.3018
rwrist -179.914
rhand -26.5236 -2.36012
rfingers 7.12502
rthumb 0.0400401 -32.3399
lclavicle -6.36111e-015 4.77083e-015
lhumerus -40.13 -7.11986 75.1714
lradius 70.152
lwrist 28.2649
lhand -20.7915 31.4483
lfingers 7.12502
lthumb 5.57563 61.3549
rfemur -110.924 -27.1988 23.451
rtibia 116.511
rfoot -17.5959 25.8365
rtoes -23.3669
lfemur -113.145 36.6013 -53.8886
ltibia 118.272
lfoot -9.84742 -27.7042
ltoes -9.19811
327
root -0.524724 12.039 0.303699 248.398 104.707 221.743
lowerback 30.5058 -1.44284 9.75205
upperback 8.32447 2.31288 4.72693
thorax -7.13587 1.32908 -1.13524
lowerneck -15.822 -15.231 -7.12497
upperneck 3.03613 -20.1518 12.6638
head 5.43955 -9.37618 2.87131
rclavicle -7.95139e-014 -5.40694e-014
rhumerus 80.2269 -48.7715 -123.143
rradius 29.4989
rwrist -179.675
rhand -26.622 -2.27021
rfingers 7.12502
rthumb -0.0550128 -32.2499
lclavicle -7.95139e-014 -5.40694e-014
lhumerus -40.1322 -7.34066 75.3624
lradius 70.0846
lwrist 27.7426
lhand -20.7237 31.6744
lfingers 7.12502
lthumb 5.64107 61.5793
rfemur -109.961 -26.753 23.2227
rtibia 115.645
rfoot -18.1536 25.309
rtoes -24.1773
lfemur -112.189 36.2378 -53.3535
ltibia 117.469
lfoot -10.0257 -27.5028
ltoes -8.46877
328
root -0.524799 12.1376 0.297705 248.395 104.707 221.722
lowerback 30.2546 -1.37896 9.4765
upperback 8.26532 2.26543 4.67261
thorax -7.09981 1.30462 -1.02242
lowerneck -15.8028 -15.181 -7.22105
upperneck 3.18503 -20.0936 12.7699
head 5.50083 -9.33539 2.91779
rclavicle 3.18055e-015 -7.95139e-015
rhumerus 78.7459 -49.0224 -121.712
rradius 29.67
rwrist -179.685
rhand -26.537 -2.21721
rfingers 7.12502
rthumb 0.0271283 -32.1969
lclavicle 3.18055e-015 -7.95139e-015
lhumerus -40.1804 -7.39036 75.5987
lradius 69.9841
lwrist 26.9821
lhand -20.619 31.45
lfingers 7.12502
lthumb 5.74224 61.3522
rfemur -108.937 -26.4534 22.9073
rtibia 114.693
rfoot -18.3238 25.0677
rtoes -24.2862
lfemur -111.069 35.8975 -52.913
ltibia 116.587
lfoot -10.1789 -27.3937
ltoes -7.74738
329
root -0.523802 12.2324 0.290049 248.748 104.777 222.011
lowerback 29.9939 -1.30234 9.11158
upperback 8.16454 2.21136 4.63986
thorax -7.11168 1.27353 -0.832777
lowerneck -15.713 -15.1825 -7.50056
upperneck 3.27965 -20.0835 13.0123
head 5.57245 -9.31753 3.02586
rclavicle 0 -1.30403e-013
rhumerus 77.2225 -49.2554 -120.17
rradius 29.8231
rwrist -179.8
rhand -26.5991 -2.44681
rfingers 7.12502
rthumb -0.0329316 -32.4266
lclavicle 0 -1.30403e-013
lhumerus -40.3402 -7.39109 75.9114
lradius 70.0345
lwrist 26.3178
lhand -20.4144 31.3065
lfingers 7.12502
lthumb 5.93973 61.2033
rfemur -107.934 -26.2586 22.396
rtibia 113.627
rfoot -17.7644 25.3411
rtoes -22.2044
lfemur -110.063 35.4263 -52.631
ltibia 115.671
lfoot -10.6861 -27.2094
ltoes -8.35635
330
root -0.521461 12.3316 0.285817 248.526 104.681 221.732
lowerback 29.6826 -1.23271 8.95
upperback 8.12029 2.20098 4.6031
thorax -7.02063 1.2685 -0.776317
lowerneck -15.7353 -15.1909 -7.60227
upperneck 3.40537 -20.101 13.1312
head 5.64176 -9.31248 3.0642
rclavicle -5.725e-014 -1.11319e-014
rhumerus 75.7991 -49.519 -118.743
rradius 29.9971
rwrist -179.818
rhand -26.731 -2.68899
rfingers 7.12502
rthumb -0.160262 -32.6687
lclavicle -5.725e-014 -1.11319e-014
lhumerus -40.3761 -7.52372 76.1615
lradius 70.0305
lwrist 25.805
lhand -20.3604 31.2079
lfingers 7.12502
lthumb 5.99188 61.1032
rfemur -106.798 -26.0167 22.0732
rtibia 112.529
rfoot -16.8727 25.8883
rtoes -18.6274
lfemur -109.165 35.1282 -52.2003
ltibia 114.765
lfoot -11.1115 -27.0024
ltoes -9.13712
331
root -0.521344 12.4429 0.282524 248.386 104.543 221.543
lowerback 29.3458 -1.16122 8.81645
upperback 8.08584 2.19758 4.55514
thorax -6.9032 1.26803 -0.750122
lowerneck -15.8567 -15.1734 -7.4523
upperneck 3.53579 -20.1101 13.1032
head 5.6851 -9.30462 3.02354
rclavicle -2.54444e-014 -2.38542e-014
rhumerus 74.414 -49.8157 -117.448
rradius 30.2926
rwrist -179.671
rhand -26.7404 -2.65576
rfingers 7.12502
rthumb -0.169348 -32.6354
lclavicle -2.54444e-014 -2.38542e-014
lhumerus -40.2995 -7.70176 76.385
lradius 69.932
lwrist 25.0665
lhand -20.3317 31.0595
lfingers 7.12502
lthumb 6.01955 60.954
rfemur -105.732 -25.8431 21.9639
rtibia 111.419
rfoot -16.5548 26.059
rtoes -16.7558
lfemur -108.184 34.8304 -51.7512
ltibia 113.758
lfoot -11.3712 -26.7435
ltoes -9.49084
332
root -0.523974 12.5588 0.277216 248.587 104.511 221.655
lowerback 28.9638 -1.08154 8.56798
upperback 8.02475 2.16324 4.47751
thorax -6.79963 1.25101 -0.681393
lowerneck -15.8002 -15.1528 -7.46502
upperneck 3.49445 -20.1026 13.3196
head 5.69064 -9.2907 3.09303
rclavicle -3.81667e-014 -3.18055e-014
rhumerus 72.4168 -50.0337 -115.504
rradius 30.7046
rwrist -180.073
rhand -26.4753 -2.51924
rfingers 7.12502
rthumb 0.0866872 -32.499
lclavicle -3.81667e-014 -3.18055e-014
lhumerus -40.2393 -7.83089 76.6061
lradius 69.837
lwrist 24.2614
lhand -20.3774 30.7652
lfingers 7.12502
lthumb 5.9755 60.661
rfemur -104.85 -25.6772 21.8315
rtibia 110.302
rfoot -16.7879 25.8722
rtoes -17.0246
lfemur -107.152 34.4199 -51.4413
ltibia 112.65
lfoot -11.5387 -26.4675
ltoes -9.03901
